# xmcd
#
# Track frame offsets: 
#        150
#        12805
#        22440
#        31822
#        47667
#        62234
#        73244
#        95677
#        108847
#
# Disc length: 1611 seconds
#
# Revision: 0
# Processed by: cddbd v1.5.2PL0 Copyright (c) Steve Scherf et al.
# Submitted via: ExactAudioCopy v0.95b3
#
DISCID=79064909
DTITLE=The Beatles  - Way Beyond Compare - Episode 12 Please Please Me
DTITLE=Sessions 2 (11 February 1963)  FLAC
DYEAR=1900
DGENRE=
TTITLE0=There's A Place - takes 7 and 8 (stereo)
TTITLE1=There's A Place - take 9 (stereo)
TTITLE2=There's A Place - take 10 (stereo)
TTITLE3=I Saw Her Standing There - take 1 (stereo)
TTITLE4=I Saw Her Standing There - take 2 (stereo)
TTITLE5=I Saw Her Standing There - take 3 and 4 and 5 (stereo)
TTITLE6=I Saw Her Standing There - takes 6-9 (stereo)
TTITLE7=I Saw Her Standing There - RS from take 9
TTITLE8=Do You Want To Know A Secret - take 7 (mono)
EXTD=
EXTT0=
EXTT1=
EXTT2=
EXTT3=
EXTT4=
EXTT5=
EXTT6=
EXTT7=
EXTT8=
PLAYORDER=
